<svg xmlns="http://www.w3.org/2000/svg" xmlns:svg="http://www.w3.org/2000/svg" id="svg2" width="1028.143" height="445.286" version="1.1"><defs id="defs4"><marker id="Arrow1Lstart" orient="auto" refX="0" refY="0" style="overflow:visible"><path id="path4237" d="M 0,0 5,-5 -12.5,0 5,5 0,0 Z" transform="matrix(0.8,0,0,0.8,10,0)" style="fill-rule:evenodd;stroke:#000;stroke-width:1pt"/></marker><marker id="Arrow1Lend" orient="auto" refX="0" refY="0" style="overflow:visible"><path id="path4240" d="M 0,0 5,-5 -12.5,0 5,5 0,0 Z" transform="matrix(-0.8,0,0,-0.8,-10,0)" style="fill-rule:evenodd;stroke:#000;stroke-width:1pt"/></marker><marker id="Arrow1Lend-9" orient="auto" refX="0" refY="0" style="overflow:visible"><path id="path4240-6" d="M 0,0 5,-5 -12.5,0 5,5 0,0 Z" transform="matrix(-0.8,0,0,-0.8,-10,0)" style="fill-rule:evenodd;stroke:#000;stroke-width:1pt"/></marker><marker id="Arrow1Lend-3" orient="auto" refX="0" refY="0" style="overflow:visible"><path id="path4240-0" d="M 0,0 5,-5 -12.5,0 5,5 0,0 Z" transform="matrix(-0.8,0,0,-0.8,-10,0)" style="fill-rule:evenodd;stroke:#000;stroke-width:1pt"/></marker><marker id="Arrow1Lend-8" orient="auto" refX="0" refY="0" style="overflow:visible"><path id="path4240-4" d="M 0,0 5,-5 -12.5,0 5,5 0,0 Z" transform="matrix(-0.8,0,0,-0.8,-10,0)" style="fill-rule:evenodd;stroke:#000;stroke-width:1pt"/></marker><marker id="Arrow1Lend-2" orient="auto" refX="0" refY="0" style="overflow:visible"><path id="path4240-5" d="M 0,0 5,-5 -12.5,0 5,5 0,0 Z" transform="matrix(-0.8,0,0,-0.8,-10,0)" style="fill-rule:evenodd;stroke:#000;stroke-width:1pt"/></marker><marker id="Arrow1Lend-0" orient="auto" refX="0" refY="0" style="overflow:visible"><path id="path4240-8" d="M 0,0 5,-5 -12.5,0 5,5 0,0 Z" transform="matrix(-0.8,0,0,-0.8,-10,0)" style="fill-rule:evenodd;stroke:#000;stroke-width:1pt"/></marker><marker id="Arrow1Lend-87" orient="auto" refX="0" refY="0" style="overflow:visible"><path id="path4240-08" d="M 0,0 5,-5 -12.5,0 5,5 0,0 Z" transform="matrix(-0.8,0,0,-0.8,-10,0)" style="fill-rule:evenodd;stroke:#000;stroke-width:1pt"/></marker><marker id="Arrow1Lend-1" orient="auto" refX="0" refY="0" style="overflow:visible"><path id="path4240-1" d="M 0,0 5,-5 -12.5,0 5,5 0,0 Z" transform="matrix(-0.8,0,0,-0.8,-10,0)" style="fill-rule:evenodd;stroke:#000;stroke-width:1pt"/></marker><marker id="Arrow1Lend-5" orient="auto" refX="0" refY="0" style="overflow:visible"><path id="path4240-7" d="M 0,0 5,-5 -12.5,0 5,5 0,0 Z" transform="matrix(-0.8,0,0,-0.8,-10,0)" style="fill-rule:evenodd;stroke:#000;stroke-width:1pt"/></marker></defs><metadata id="metadata7"/><g id="layer1" transform="translate(-13.785714,-321.86213)"><rect style="fill:#ececec;stroke:#000;stroke-width:1.14613867;stroke-opacity:1" id="rect3813-2" width="226.997" height="166.997" x="795.43" y="334.471"/><rect style="fill:#fea;fill-rule:evenodd;stroke:#000;stroke-width:1px;stroke-linecap:butt;stroke-linejoin:miter;stroke-opacity:1" id="rect2985" width="260" height="68.571" x="24" y="693.791"/><text style="font-style:normal;font-weight:400;line-height:0%;font-family:sans-serif;text-align:center;letter-spacing:0;word-spacing:0;text-anchor:middle;fill:#000;fill-opacity:1;stroke:none" id="text2987" x="153.72" y="739.505" xml:space="preserve"><tspan id="tspan2989" x="153.72" y="739.505" style="font-size:35px;line-height:1.25;font-family:sans-serif">webruntime</tspan></text><rect style="fill:#ececec;fill-rule:evenodd;stroke:#000;stroke-width:1.21082687px;stroke-linecap:butt;stroke-linejoin:miter;stroke-opacity:1" id="rect2985-0" width="241.218" height="108.361" x="467.177" y="553.896"/><text style="font-style:normal;font-weight:400;line-height:0%;font-family:sans-serif;text-align:center;letter-spacing:0;word-spacing:0;text-anchor:middle;fill:#000;fill-opacity:1;stroke:none" id="text2987-1" x="589.307" y="591.505" xml:space="preserve"><tspan id="tspan2989-3" x="589.307" y="591.505" style="font-size:35px;line-height:1.25;font-family:sans-serif">event</tspan></text><rect style="fill:#fea;fill-rule:evenodd;stroke:#000;stroke-width:1px;stroke-linecap:butt;stroke-linejoin:miter;stroke-opacity:1" id="rect2985-0-0" width="260" height="68.571" x="772.857" y="689.791"/><text style="font-style:normal;font-weight:400;line-height:0%;font-family:sans-serif;text-align:center;letter-spacing:0;word-spacing:0;text-anchor:middle;fill:#000;fill-opacity:1;stroke:none" id="text2987-1-4" x="896.579" y="734.648" xml:space="preserve"><tspan id="tspan2989-3-7" x="896.579" y="734.648" style="font-size:35px;line-height:1.25;font-family:sans-serif">pscript</tspan></text><rect style="fill:#ececec;stroke:#000;stroke-width:1.14613867;stroke-opacity:1" id="rect3813" width="226.997" height="166.997" x="474.287" y="334.471"/><text style="font-style:normal;font-weight:400;line-height:0%;font-family:sans-serif;text-align:center;letter-spacing:0;word-spacing:0;text-anchor:middle;fill:#000;fill-opacity:1;stroke:none" id="text3041" x="591.467" y="452.362" xml:space="preserve"><tspan id="tspan3825" x="591.467" y="452.362" style="font-size:27.5px;line-height:1.25;font-family:sans-serif">JsComponent</tspan><tspan style="font-size:27.5px;line-height:1.25;font-family:sans-serif" id="tspan3748" x="591.467" y="486.737">PyComponent</tspan></text><rect style="fill:#fca;stroke:#000;stroke-linejoin:miter;stroke-opacity:1" id="rect3815" width="231.429" height="148.571" x="21.429" y="330.934" rx="10" ry="10"/><text style="font-style:normal;font-weight:400;line-height:0%;font-family:sans-serif;text-align:center;letter-spacing:0;word-spacing:0;text-anchor:middle;fill:#000;fill-opacity:1;stroke:none" id="text3817" x="135.465" y="389.505" xml:space="preserve"><tspan id="tspan3819" x="141.036" y="389.505" style="font-size:35px;line-height:1.25;font-family:sans-serif">browser / </tspan><tspan id="tspan3821" x="135.465" y="433.255" style="font-size:35px;line-height:1.25;font-family:sans-serif">desktop app</tspan></text><text style="font-style:normal;font-weight:400;line-height:0%;font-family:sans-serif;letter-spacing:0;word-spacing:0;fill:#000;fill-opacity:1;stroke:none" id="text4677" x="34.286" y="613.791" xml:space="preserve"><tspan id="tspan4679" x="34.286" y="613.791" style="font-size:27.5px;line-height:1.25;font-family:sans-serif">launch</tspan></text><text style="font-style:normal;font-weight:400;line-height:0%;font-family:sans-serif;letter-spacing:0;word-spacing:0;fill:#000;fill-opacity:1;stroke:none" id="text4685" x="806.571" y="485.219" xml:space="preserve"><tspan id="tspan4687" x="806.571" y="485.219" style="font-size:27.5px;line-height:1.25;font-family:sans-serif">Widget classes</tspan></text><path style="fill:none;stroke:#000;stroke-width:2;stroke-linecap:butt;stroke-linejoin:miter;stroke-miterlimit:4;stroke-dasharray:none;stroke-opacity:1;marker-start:url(#Arrow1Lstart);marker-end:url(#Arrow1Lend)" id="path4689" d="m 257.17765,407.56641 214.21613,-1.83702"/><text style="font-style:normal;font-weight:400;line-height:0%;font-family:sans-serif;letter-spacing:0;word-spacing:0;fill:#000;fill-opacity:1;stroke:none" id="text5061" x="280" y="446.648" xml:space="preserve"><tspan id="tspan5063" x="280" y="446.648" style="font-size:27.5px;line-height:1.25;font-family:sans-serif">websocket</tspan></text><path style="fill:none;stroke:#000;stroke-width:1.37607455;stroke-linecap:butt;stroke-linejoin:miter;stroke-miterlimit:4;stroke-dasharray:none;stroke-opacity:1;marker-start:none;marker-mid:none;marker-end:url(#Arrow1Lend)" id="path3871-9-9" d="M 586.25456,549.31004 586.5608,511.5023"/><text style="font-style:normal;font-weight:400;line-height:0%;font-family:sans-serif;letter-spacing:0;word-spacing:0;fill:#000;fill-opacity:1;stroke:none" id="text5124" x="892.571" y="380.076" xml:space="preserve"><tspan id="tspan5126" x="892.571" y="380.076" style="font-size:35px;line-height:1.25;font-family:sans-serif">UI</tspan></text><text style="font-style:normal;font-weight:400;line-height:0%;font-family:sans-serif;letter-spacing:0;word-spacing:0;fill:#000;fill-opacity:1;stroke:none" id="text5124-4" x="558.861" y="372.515" xml:space="preserve"><tspan id="tspan5126-6" x="558.861" y="372.515" style="font-size:35px;line-height:1.25;font-family:sans-serif">app</tspan></text><path style="fill:none;stroke:#000;stroke-width:2;stroke-linecap:butt;stroke-linejoin:miter;stroke-miterlimit:4;stroke-dasharray:none;stroke-opacity:1;marker-start:none;marker-mid:none;marker-end:url(#Arrow1Lend-1)" id="path3871-9-9-1" d="m 146.52968,677.93095 0.13746,-177.92683"/><path style="fill:none;stroke:#000;stroke-width:2;stroke-linecap:butt;stroke-linejoin:miter;stroke-miterlimit:4;stroke-dasharray:none;stroke-opacity:1;marker-start:none;marker-mid:none;marker-end:url(#Arrow1Lend-5)" id="path3871-9-9-8" d="m 710.49214,416.04167 77.92683,-1.29111"/><text style="font-style:normal;font-weight:400;line-height:0%;font-family:sans-serif;text-align:center;letter-spacing:0;word-spacing:0;text-anchor:middle;fill:#000;fill-opacity:1;stroke:none" id="text3041-5" x="592.772" y="643.591" xml:space="preserve"><tspan style="font-size:27.5px;line-height:1.25;font-family:sans-serif" id="tspan3748-3" x="592.772" y="643.591">Component</tspan></text></g></svg>